<svg id="Component_7_2" data-name="Component 7 – 2" xmlns="http://www.w3.org/2000/svg" width="24" height="24" viewBox="0 0 24 24">
  <rect id="Rectangle_27" data-name="Rectangle 27" width="24" height="24" fill="rgba(255,255,255,0)"/>
  <path id="Notification" d="M12.036,2h-.071C8.6,2,5.507,4.445,5.207,7.681c-.02.232-.034.468-.042.723L5.152,9l0,.534.015-.061a3.85,3.85,0,0,1-.928,1.821l-.067.086A4.08,4.08,0,0,0,3.5,13.424v.238a4.07,4.07,0,0,0,.926,2.66,4.874,4.874,0,0,0,3.086,1.524,41.583,41.583,0,0,0,8.974,0,4.8,4.8,0,0,0,3.046-1.487,4.076,4.076,0,0,0,.965-2.5v-.4a4.013,4.013,0,0,0-.671-2.074l-.062-.079-.151-.177A3.93,3.93,0,0,1,18.89,9.7l-.045-.187-.009-.2c0-.088,0-.186,0-.308V8.332c0-.257-.01-.441-.028-.647C18.493,4.443,15.4,2,12.036,2Zm-.071,1.4h.071c2.7,0,5.158,1.945,5.395,4.418.014.162.02.317.022.547l0,.9c0,.145.009.265.018.4l.013.093.065.276a5.331,5.331,0,0,0,1.013,2l.138.162-.015-.025a2.585,2.585,0,0,1,.435,1.323v.163a2.653,2.653,0,0,1-.613,1.773,3.418,3.418,0,0,1-2.157,1.03,40.271,40.271,0,0,1-8.7,0,3.485,3.485,0,0,1-2.2-1.065,2.656,2.656,0,0,1-.575-1.716v-.219l.017-.191a2.671,2.671,0,0,1,.314-.939l.084-.139a5.25,5.25,0,0,0,1.22-2.434l.014-.142L6.535,8.7l.016-.466c.007-.147.017-.287.028-.422C6.808,5.341,9.267,3.4,11.965,3.4Zm-6.671,8.8-.045.05.049-.057Zm9.314,7.5a.684.684,0,0,0-.969.106,1.977,1.977,0,0,1-.356.347,2.138,2.138,0,0,1-1.576.445,2.117,2.117,0,0,1-1.414-.79.684.684,0,0,0-.969-.111.7.7,0,0,0-.11.98,3.5,3.5,0,0,0,4.9.586,3.323,3.323,0,0,0,.6-.583A.7.7,0,0,0,14.608,19.691Z" fill="#200e32" fill-rule="evenodd"/>
</svg>
