<svg id="Component_9_2" data-name="Component 9 – 2" xmlns="http://www.w3.org/2000/svg" width="24" height="24" viewBox="0 0 24 24">
  <rect id="Rectangle_36" data-name="Rectangle 36" width="24" height="24" fill="rgba(255,255,255,0)"/>
  <path id="Search" d="M11.611,2A9.507,9.507,0,0,0,2,11.4a9.507,9.507,0,0,0,9.611,9.4,9.707,9.707,0,0,0,6-2.057l3.124,3.047.083.07a.753.753,0,0,0,.964-.071.713.713,0,0,0,0-1.024L18.7,17.752A9.253,9.253,0,0,0,21.223,11.4,9.507,9.507,0,0,0,11.611,2Zm0,1.448A8.043,8.043,0,0,1,19.743,11.4a8.043,8.043,0,0,1-8.131,7.951A8.043,8.043,0,0,1,3.48,11.4,8.043,8.043,0,0,1,11.611,3.448Z" fill="#200e32" fill-rule="evenodd"/>
</svg>
