<svg xmlns="http://www.w3.org/2000/svg" xmlns:xlink="http://www.w3.org/1999/xlink" width="81" height="24" viewBox="0 0 81 24">
  <defs>
    <clipPath id="clip-path">
      <rect width="24" height="24" fill="none"/>
    </clipPath>
  </defs>
  <g id="Group_19" data-name="Group 19" transform="translate(-1620 -163)">
    <g id="Repeat_Grid_1" data-name="Repeat Grid 1" transform="translate(1620 163)" clip-path="url(#clip-path)">
      <g id="Group_18" data-name="Group 18" transform="translate(-1521 -170)">
        <path id="Path_16" data-name="Path 16" d="M0,0H24V24H0Z" transform="translate(1521 170)" fill="rgba(255,255,255,0)"/>
        <path id="Filter" d="M7.76,6.214a2,2,0,1,0-2,1.972A1.987,1.987,0,0,0,7.76,6.214Zm1.765,0A3.763,3.763,0,1,1,5.762,2.5,3.742,3.742,0,0,1,9.525,6.214ZM22,6.214a.877.877,0,0,0-.882-.871H13.882a.871.871,0,1,0,0,1.742h7.235A.877.877,0,0,0,22,6.214ZM16.24,17.786a2,2,0,1,0,2-1.972A1.987,1.987,0,0,0,16.24,17.786Zm-1.765,0A3.763,3.763,0,1,1,18.237,21.5,3.741,3.741,0,0,1,14.475,17.786ZM2.883,16.915h7.234a.871.871,0,1,1,0,1.742H2.883a.871.871,0,1,1,0-1.742Z" transform="translate(1521 170)" fill="#111" fill-rule="evenodd"/>
      </g>
    </g>
    <text id="Filters" transform="translate(1659 180)" fill="#222" font-size="16" font-family="SegoeUI, Segoe UI"><tspan x="0" y="0">Filters</tspan></text>
  </g>
</svg>
