<svg xmlns="http://www.w3.org/2000/svg" width="20" height="18" viewBox="0 0 20 18">
  <path id="Message" d="M16.525,3H7.456A5.533,5.533,0,0,0,2,8.859v6.282A5.533,5.533,0,0,0,7.456,21h9.061a5.522,5.522,0,0,0,4-1.773A5.6,5.6,0,0,0,21.989,15.1V8.859A5.557,5.557,0,0,0,16.525,3ZM7.456,4.528h9.052A4,4,0,0,1,19.4,5.816a4.064,4.064,0,0,1,1.072,3v6.327A4.1,4.1,0,0,1,19.4,18.184a4,4,0,0,1-2.894,1.287H7.456a4.018,4.018,0,0,1-3.939-4.331V8.859A4.018,4.018,0,0,1,7.456,4.528Zm10.568,4.11a.755.755,0,0,0-1.066-.119l-4.1,3.3-.118.083a1.379,1.379,0,0,1-1.581-.089l-4.129-3.3-.093-.064a.755.755,0,0,0-.973.187.768.768,0,0,0,.123,1.074l4.134,3.3.161.118c1.04.708,3.416-.114,3.416-.114l4.107-3.311.082-.077S18.262,8.938,18.024,8.638Z" transform="translate(-2 -3)" fill="#222" fill-rule="evenodd"/>
</svg>
