<svg xmlns="http://www.w3.org/2000/svg" width="10" height="10" viewBox="0 0 10 10">
  <g id="Path_15" data-name="Path 15" fill="#f28">
    <path d="M 5 9.5 C 3.097464561462402 9.5 1.232277035713196 6.425649166107178 0.5511370301246643 5.000203609466553 C 1.233327865600586 3.575106859207153 3.100817441940308 0.5 5 0.5 C 7.48130989074707 0.5 9.5 2.51869010925293 9.5 5 C 9.5 7.48130989074707 7.48130989074707 9.5 5 9.5 Z" stroke="none"/>
    <path d="M 5 1 C 4.221640110015869 1 3.260069847106934 1.732199668884277 2.292409896850586 3.061709880828857 C 1.752499580383301 3.80352258682251 1.33818244934082 4.557901859283447 1.110067367553711 5.004436016082764 C 1.880293846130371 6.530404090881348 3.54386043548584 9 5 9 C 7.205610275268555 9 9 7.205610275268555 9 5 C 9 2.794390201568604 7.205610275268555 1 5 1 M 5 0 C 7.761420249938965 0 10 2.238580226898193 10 5 C 10 7.761420249938965 7.761420249938965 10 5 10 C 2.238580226898193 10 0 5 0 5 C 0 5 2.238580226898193 0 5 0 Z" stroke="none" fill="#fff"/>
  </g>
</svg>
