<svg id="Component_4_2" data-name="Component 4 – 2" xmlns="http://www.w3.org/2000/svg" width="24" height="27" viewBox="0 0 24 27">
  <rect id="Rectangle_23" data-name="Rectangle 23" width="24" height="27" transform="translate(0)" fill="rgba(255,255,255,0)"/>
  <path id="Folder" d="M9.385,2H7.453C3.73,2,2,4.459,2,9.04v8.526c0,4.368,2.364,7.04,6.229,7.04h7.524c3.858,0,6.22-2.674,6.22-7.04L22,12.139c0-4.575-1.689-6.815-5.47-6.815H13.8a1.438,1.438,0,0,1-1.185-.672l-.882-1.327A2.83,2.83,0,0,0,9.385,2ZM7.453,3.641H9.385a1.43,1.43,0,0,1,1.184.67l.883,1.329a2.839,2.839,0,0,0,2.342,1.326H16.53c2.925,0,4.021,1.453,4.021,5.17l-.027,5.426c0,3.465-1.713,5.4-4.771,5.4H8.229c-3.065,0-4.779-1.938-4.779-5.4V9.04C3.45,5.293,4.612,3.641,7.453,3.641Zm9.89,12.538a.777.777,0,0,0-.725-.82H7.347l-.1.007a.794.794,0,0,0-.626.813.777.777,0,0,0,.725.82h9.271l.1-.007A.794.794,0,0,0,17.343,16.178Z" fill="#fff" fill-rule="evenodd"/>
</svg>
